<svg id="Layer_2" data-name="Layer 2" xmlns="http://www.w3.org/2000/svg" viewBox="0 0 381.29 98"><defs><style>.cls-1,.cls-4{fill:#fff;}.cls-1,.cls-2{stroke:#000;stroke-miterlimit:10;}.cls-1{stroke-width:2px;}.cls-3{fill:red;}</style></defs><title>TTexp</title><polygon id="Left_Shape" data-name="Left Shape" class="cls-1" points="1.19 6.5 186.73 6.5 200.69 97 17.15 97 1.19 6.5"/><polygon id="Right_Shape" data-name="Right Shape" class="cls-2" points="380.69 0.5 194.69 0.5 180.69 90.5 364.69 90.5 380.69 0.5"/><path d="M465.33,303.33H448.77v44.13h-6.66V303.33H425.68v-5.94h39.65Z" transform="translate(-412.81 -265)"/><path d="M537.47,347.46h-6.28V304.87l-14.28,42.59H511L496.7,304.87v42.59h-6.29V297.39h9.94l13.56,41.73,13.62-41.73h9.94Z" transform="translate(-412.81 -265)"/><path d="M584,347.46H546.67V297.39h36.17v5.94H553.3v15.3h27.63v5.94H553.3v16.94H584Z" transform="translate(-412.81 -265)"/><rect class="cls-3" x="60.67" y="42.69" width="7.08" height="39.77"/><circle class="cls-3" cx="64.15" cy="35.57" r="3.57"/><path class="cls-4" d="M654.7,288.43h-28v-2h28Zm-28,.84h28v3.2h-28Zm0,4.38h28v3h-28Zm8.58,4.29h10.78v2.78H635.33Zm0,4.3h10.78v2.61H635.33Zm0,4.29h10.78V309H635.33Zm0,4.3h10.78v2.27H635.33Zm0,4.29h10.78v2.11H635.33Zm0,4.3h10.78v1.93H635.33Zm0,4.29h10.78v1.77H635.33Zm0,4.29h10.78v1.61H635.33Zm0,4.3h10.78v1.43H635.33Zm0,4.29h10.78v1.27H635.33Zm0,4.3h10.78v1H635.33Zm0,4.8v-.42h10.78v.42Z" transform="translate(-412.81 -265)"/><path class="cls-4" d="M684.76,286.41v2H659.08v-2Zm-25.68,2.86h25.68v3.2H659.08Zm0,4.38h25.68v3H659.08Zm0,4.29h10.78v2.78H659.08Zm0,4.3h10.78v2.61H659.08Zm0,4.29h10.78V309H659.08Zm0,4.3h23.16v2.27H659.08Zm0,4.29h23.16v2.11H659.08Zm10.78,6v.25H659.08v-1.93h23.16v1.68Zm-10.78,2.61h10.78v1.77H659.08Zm0,4.29h10.78v1.61H659.08Zm0,4.3h10.78v1.43H659.08Zm0,4.29h25.68v1.27H659.08Zm0,4.3h25.68v1H659.08Zm0,4.8v-.42h25.68v.42Z" transform="translate(-412.81 -265)"/><path class="cls-4" d="M719.37,296.6H689.14v-3h30.23v3Zm-30.23,1.34h10.78v2.78H689.14Zm0,4.3h10.78v2.61H689.14Zm0,4.29h10.78V309H689.14Zm0,4.3h10.78v2.27H689.14Zm0,4.29h10.78v2.11H689.14Zm0,4.3h10.78v1.93H689.14Zm0,4.29h10.78v1.77H689.14Zm0,4.29h10.78v1.61H689.14Zm0,4.3h10.78v1.43H689.14Zm0,4.29h30.23v1.27H689.14Zm30.15-44.12H689.23a7.93,7.93,0,0,1,1.09-3.2h27.79A8.51,8.51,0,0,1,719.29,292.47Zm-29.81,48.42H719c-.06.17-.12.34-.17.5s-.12.34-.17.51H689.82A4.48,4.48,0,0,1,689.48,340.89Zm27.95-52.46H691q2-2,6-2h14.57A8,8,0,0,1,717.43,288.43Zm-23.74,56.84h21a5.64,5.64,0,0,1-1.47.33,15.61,15.61,0,0,1-1.73.09H697A10.12,10.12,0,0,1,693.69,345.27Zm14.9-47.33h10.78v2.78H708.59Zm0,4.3h10.78v2.61H708.59Zm0,5.64v-1.35h10.78v1.35Zm10.78,17.6H708.59v-1.26h10.78ZM708.59,328h10.78v1.61H708.59Zm0,4.3h10.78v1.43H708.59Z" transform="translate(-412.81 -265)"/><path class="cls-4" d="M734.53,288.43H723.75v-2h10.78Zm-10.78.84h10.78v3.2H723.75Zm0,4.38h10.78v3H723.75Zm0,4.29h10.78v2.78H723.75Zm0,4.3h10.78v2.61H723.75Zm0,4.29h10.78V309H723.75Zm0,4.3h30.06v2.27H723.75Zm0,4.29h30.06v2.11H723.75ZM743,321.18h-8.5v.17H723.75v-1.93h30.06v1.93H743Zm-19.28,2.53h10.78v1.77H723.75Zm0,4.29h10.78v1.61H723.75Zm0,4.3h10.78v1.43H723.75Zm0,4.29h10.78v1.27H723.75Zm0,4.3h10.78v1H723.75Zm0,4.8v-.42h10.78v.42ZM743,286.41h10.78v2H743Zm0,2.86h10.78v3.2H743Zm0,4.38h10.78v3H743Zm0,4.29h10.78v2.78H743Zm0,4.3h10.78v2.61H743Zm0,4.29h10.78V309H743Zm0,17.18h10.78v1.77H743Zm0,4.29h10.78v1.61H743Zm0,4.3h10.78v1.43H743Zm0,4.29h10.78v1.27H743Zm0,4.3h10.78v1H743Zm0,4.8v-.42h10.78v.42Z" transform="translate(-412.81 -265)"/></svg>